<svg xmlns="http://www.w3.org/2000/svg" viewBox="0 0 800 400" style="background-color:#121212; font-family:sans-serif;">
    <text x="400.0" y="30" fill="white" font-size="20" text-anchor="middle" font-weight="bold">Catalog Size</text>
    
    <!-- Axes -->
    <line x1="60" y1="340" x2="740" y2="340" stroke="white" stroke-width="2" />
    <line x1="60" y1="60" x2="60" y2="340" stroke="white" stroke-width="2" />
    
    <!-- Labels -->
    <text x="400.0" y="385" fill="#888" font-size="14" text-anchor="middle">Time</text>
    <text x="15" y="200.0" fill="#888" font-size="14" text-anchor="middle" transform="rotate(-90 15,200.0)">Tracks</text>
    
    <!-- Graph -->
    <polyline points="60.0,340.0 62.8099173553719,338.8429752066116 65.6198347107438,337.68595041322317 68.4297520661157,336.5289256198347 71.2396694214876,335.3719008264463 74.0495867768595,334.21487603305786 76.85950413223141,333.05785123966945 79.6694214876033,331.900826446281 82.47933884297521,330.74380165289256 85.2892561983471,329.58677685950414 88.09917355371901,328.4297520661157 90.9090909090909,327.27272727272725 93.71900826446281,326.11570247933884 96.52892561983471,324.9586776859504 99.3388429752066,323.801652892562 102.14876033057851,322.64462809917353 104.95867768595042,321.4876033057851 107.76859504132231,320.3305785123967 110.57851239669421,319.1735537190083 113.38842975206612,318.0165289256198 116.19834710743802,316.8595041322314 119.00826446280992,315.702479338843 121.81818181818181,314.54545454545456 124.62809917355372,313.38842975206614 127.43801652892562,312.2314049586777 130.24793388429754,311.07438016528926 133.05785123966942,309.91735537190084 135.86776859504133,308.76033057851237 138.6776859504132,307.60330578512395 141.48760330578511,306.44628099173553 144.29752066115702,305.2892561983471 147.10743801652893,304.1322314049587 149.91735537190084,302.97520661157023 152.72727272727272,301.8181818181818 155.53719008264463,300.6611570247934 158.3471074380165,299.504132231405 161.15702479338842,298.3471074380165 163.96694214876032,297.1900826446281 166.77685950413223,296.0330578512397 169.58677685950414,294.87603305785126 172.39669421487605,293.7190082644628 175.20661157024793,292.56198347107437 178.01652892561984,291.40495867768595 180.82644628099172,290.24793388429754 183.63636363636363,289.09090909090907 186.44628099173553,287.93388429752065 189.25619834710744,286.77685950413223 192.06611570247932,285.6198347107438 194.87603305785123,284.46280991735534 197.68595041322314,283.3057851239669 200.49586776859505,282.1487603305785 203.30578512396693,280.9917355371901 206.11570247933884,279.8347107438017 208.92561983471074,278.6776859504132 211.73553719008265,277.5206611570248 214.54545454545453,276.3636363636364 217.35537190082644,275.2066115702479 220.16528925619835,274.04958677685954 222.97520661157026,272.89256198347107 225.78512396694214,271.73553719008265 228.59504132231405,270.57851239669424 231.40495867768595,269.42148760330576 234.21487603305783,268.26446280991735 237.02479338842977,267.10743801652893 239.83471074380165,265.95041322314046 242.64462809917356,264.7933884297521 245.45454545454544,263.6363636363636 248.26446280991738,262.4793388429752 251.07438016528926,261.3223140495868 253.88429752066116,260.1652892561983 256.694214876033,259.0082644628099 259.504132231405,257.8512396694215 262.31404958677683,256.6942148760331 265.12396694214874,255.53719008264463 267.93388429752065,254.38016528925618 270.74380165289256,253.22314049586777 273.55371900826447,252.06611570247935 276.3636363636364,250.9090909090909 279.1735537190083,249.7520661157025 281.9834710743802,248.59504132231405 284.7933884297521,247.43801652892563 287.60330578512395,246.28099173553719 290.41322314049586,245.12396694214877 293.2231404958678,243.96694214876032 296.0330578512397,242.8099173553719 298.8429752066115,241.6528925619835 301.65289256198344,240.49586776859505 304.4628099173554,239.3388429752066 307.27272727272725,238.1818181818182 310.08264462809916,237.02479338842977 312.89256198347107,235.86776859504133 315.702479338843,234.71074380165288 318.5123966942149,233.55371900826447 321.3223140495868,232.39669421487605 324.13223140495865,231.2396694214876 326.9421487603306,230.08264462809916 329.75206611570246,228.92561983471074 332.56198347107437,227.76859504132233 335.3719008264463,226.61157024793388 338.1818181818182,225.45454545454544 340.9917355371901,224.29752066115702 343.801652892562,223.1404958677686 346.61157024793386,221.9834710743802 349.4214876033058,220.82644628099172 352.2314049586777,219.6694214876033 355.0413223140496,218.51239669421489 357.8512396694215,217.35537190082647 360.6611570247934,216.198347107438 363.4710743801653,215.04132231404958 366.2809917355372,213.88429752066116 369.09090909090907,212.72727272727275 371.90082644628103,211.5702479338843 374.7107438016529,210.41322314049586 377.5206611570248,209.25619834710744 380.3305785123967,208.09917355371903 383.1404958677686,206.94214876033058 385.9504132231405,205.78512396694214 388.7603305785124,204.62809917355372 391.5702479338843,203.4710743801653 394.38016528925624,202.31404958677686 397.1900826446281,201.15702479338842 400.0,200.0 402.8099173553719,198.84297520661158 405.61983471074376,197.68595041322314 408.42975206611567,196.52892561983472 411.2396694214876,195.3719008264463 414.04958677685954,194.21487603305783 416.85950413223145,193.05785123966942 419.6694214876033,191.90082644628097 422.4793388429752,190.74380165289256 425.2892561983471,189.58677685950414 428.09917355371897,188.4297520661157 430.9090909090909,187.27272727272728 433.7190082644628,186.11570247933886 436.52892561983475,184.9586776859504 439.3388429752066,183.80165289256198 442.1487603305785,182.64462809917356 444.9586776859504,181.48760330578511 447.7685950413223,180.3305785123967 450.5785123966942,179.17355371900828 453.3884297520661,178.01652892561984 456.198347107438,176.85950413223142 459.00826446280996,175.70247933884298 461.8181818181818,174.54545454545453 464.6280991735537,173.38842975206612 467.43801652892563,172.23140495867767 470.24793388429754,171.07438016528926 473.0578512396694,169.91735537190084 475.8677685950413,168.7603305785124 478.6776859504132,167.60330578512398 481.48760330578517,166.44628099173553 484.297520661157,165.2892561983471 487.10743801652893,164.13223140495867 489.91735537190084,162.97520661157026 492.72727272727275,161.8181818181818 495.5371900826446,160.6611570247934 498.3471074380165,159.50413223140498 501.1570247933884,158.34710743801654 503.9669421487604,157.1900826446281 506.77685950413223,156.03305785123965 509.58677685950414,154.87603305785123 512.3966942148761,153.71900826446281 515.2066115702479,152.56198347107437 518.0165289256198,151.40495867768595 520.8264462809917,150.24793388429754 523.6363636363636,149.0909090909091 526.4462809917356,147.93388429752065 529.2561983471074,146.77685950413223 532.0661157024794,145.6198347107438 534.8760330578513,144.46280991735537 537.685950413223,143.30578512396696 540.495867768595,142.1487603305785 543.3057851239669,140.9917355371901 546.1157024793388,139.83471074380168 548.9256198347108,138.6776859504132 551.7355371900826,137.5206611570248 554.5454545454545,136.36363636363635 557.3553719008264,135.20661157024793 560.1652892561983,134.0495867768595 562.9752066115702,132.89256198347107 565.7851239669421,131.73553719008265 568.595041322314,130.57851239669424 571.404958677686,129.42148760330576 574.2148760330579,128.26446280991735 577.0247933884298,127.10743801652893 579.8347107438017,125.95041322314049 582.6446280991736,124.79338842975207 585.4545454545455,123.63636363636365 588.2644628099173,122.47933884297521 591.0743801652892,121.3223140495868 593.8842975206612,120.16528925619832 596.6942148760331,119.0082644628099 599.5041322314049,117.85123966942149 602.3140495867768,116.69421487603304 605.1239669421487,115.53719008264463 607.9338842975206,114.38016528925621 610.7438016528926,113.22314049586777 613.5537190082645,112.06611570247935 616.3636363636364,110.9090909090909 619.1735537190083,109.75206611570246 621.9834710743802,108.59504132231405 624.7933884297521,107.43801652892563 627.603305785124,106.28099173553719 630.4132231404958,105.12396694214877 633.2231404958677,103.96694214876035 636.0330578512396,102.80991735537191 638.8429752066116,101.65289256198346 641.6528925619835,100.49586776859502 644.4628099173553,99.3388429752066 647.2727272727273,98.18181818181819 650.0826446280992,97.02479338842974 652.8925619834711,95.86776859504133 655.702479338843,94.71074380165291 658.5123966942149,93.55371900826447 661.3223140495868,92.39669421487602 664.1322314049587,91.2396694214876 666.9421487603306,90.08264462809916 669.7520661157025,88.92561983471074 672.5619834710744,87.76859504132233 675.3719008264462,86.61157024793388 678.1818181818181,85.45454545454547 680.99173553719,84.29752066115702 683.8016528925621,83.1404958677686 686.6115702479339,81.98347107438013 689.4214876033058,80.82644628099172 692.2314049586777,79.6694214876033 695.0413223140496,78.51239669421489 697.8512396694215,77.35537190082647 700.6611570247934,76.19834710743805 703.4710743801653,75.04132231404958 706.2809917355372,73.88429752066116 709.0909090909091,72.72727272727269 711.900826446281,71.57024793388427 714.7107438016529,70.41322314049586 717.5206611570248,69.25619834710744 720.3305785123966,68.09917355371903 723.1404958677685,66.94214876033061 725.9504132231405,65.78512396694214 728.7603305785125,64.62809917355372 731.5702479338843,63.471074380165305 734.3801652892562,62.31404958677683 737.1900826446281,61.157024793388416 740.0,60.0" fill="none" stroke="#00ccff" stroke-width="3" />
    <circle cx="740.0" cy="60.0" r="4" fill="#00ccff" />
    
    <!-- Max Value Tag -->
    <text x="740" y="80" fill="#00ccff" font-size="16" text-anchor="end">Max: 243.00</text>
</svg>