<svg xmlns="http://www.w3.org/2000/svg" viewBox="0 0 800 400" style="background-color:#121212; font-family:sans-serif;">
    <text x="400.0" y="30" fill="white" font-size="20" text-anchor="middle" font-weight="bold">Total Revenue Growth</text>
    
    <!-- Axes -->
    <line x1="60" y1="340" x2="740" y2="340" stroke="white" stroke-width="2" />
    <line x1="60" y1="60" x2="60" y2="340" stroke="white" stroke-width="2" />
    
    <!-- Labels -->
    <text x="400.0" y="385" fill="#888" font-size="14" text-anchor="middle">Time</text>
    <text x="15" y="200.0" fill="#888" font-size="14" text-anchor="middle" transform="rotate(-90 15,200.0)">Revenue ($)</text>
    
    <!-- Graph -->
    <polyline points="60.0,340.0 72.36363636363636,337.4036480195375 84.72727272727272,334.55086621384413 97.0909090909091,331.66603067999694 109.45454545454545,328.717087689842 121.81818181818181,325.63992978707165 134.1818181818182,322.46661069983975 146.54545454545453,319.2612378844539 158.9090909090909,316.0238113409143 171.27272727272725,312.75433106922077 183.63636363636363,309.35663588491184 196.0,305.92688697244904 208.36363636363635,302.43303060367856 220.72727272727272,298.90712050675415 233.09090909090907,295.15683431275284 245.45454545454544,291.3744943905976 257.8181818181818,287.5601007402885 270.1818181818182,283.61749217736394 282.5454545454545,279.57872242997786 294.9090909090909,275.44379149813017 307.27272727272725,271.2447531099748 319.6363636363636,266.9495535373579 332.0,262.4940853239716 344.3636363636363,257.84629474166223 356.7272727272727,252.94207433412197 369.09090909090907,248.00580019842783 381.45454545454544,242.97336487827215 393.8181818181818,237.87682210180876 406.18181818181813,232.7482255971915 418.5454545454545,227.58757536442036 430.9090909090909,222.33076394718768 443.27272727272725,216.8175227047241 455.6363636363636,211.24017400595284 468.0,205.6307715790277 480.3636363636364,199.89315423948713 492.72727272727275,193.9952682591773 505.09090909090907,188.00122109440585 517.4545454545455,181.91101274517288 529.8181818181818,175.75669693963215 542.1818181818182,169.474166221476 554.5454545454545,163.0634205907044 566.909090909091,156.62062123177898 579.2727272727273,150.1137144165458 591.6363636363636,143.5106464168511 604.0,136.77936350454092 616.3636363636364,129.9519194077692 628.7272727272726,123.09242158284363 641.090909090909,116.16881630161032 653.4545454545454,108.98878119514615 665.8181818181818,101.74463863237429 678.1818181818181,94.40433488514083 690.5454545454545,87.0319774097535 702.9090909090909,79.59551247805848 715.2727272727273,72.03083263374799 727.6363636363636,64.2738304205144 740.0,60.0" fill="none" stroke="#00ff88" stroke-width="3" />
    <circle cx="740.0" cy="60.0" r="4" fill="#00ff88" />
    
    <!-- Max Value Tag -->
    <text x="740" y="80" fill="#00ff88" font-size="16" text-anchor="end">Max: 6607.00</text>
</svg>